<svg xmlns="http://www.w3.org/2000/svg" viewBox="0 0 48 53"><defs><style>.cls-1{fill:#424a60;}.cls-2{fill:#efce4a;}.cls-3{fill:#7fabda;}.cls-4{fill:#7383bf;}</style></defs><title>Asset 2</title><g id="Layer_2" data-name="Layer 2"><g id="Capa_1" data-name="Capa 1"><path class="cls-1" d="M48,8h0c-.73-4.46-11.17-8-24-8S.78,3.54,0,8H0V45H0c.73,4.46,11.18,8,24,8s23.22-3.54,24-8h0V8Z"/><path class="cls-1" d="M24,41C10.74,41,0,37.19,0,32.5V45H0c.73,4.46,11.18,8,24,8s23.22-3.54,24-8h0V32.5C48,37.19,37.26,41,24,41Z"/><path class="cls-1" d="M0,32v.5A3.11,3.11,0,0,1,0,32Z"/><path class="cls-1" d="M48,32a3.11,3.11,0,0,1,0,.5V32Z"/><path class="cls-2" d="M24,29C10.74,29,0,25.19,0,20.5V33H0c.73,4.46,11.18,8,24,8s23.22-3.54,24-8h0V20.5C48,25.19,37.26,29,24,29Z"/><path class="cls-2" d="M0,20v.5A3.11,3.11,0,0,1,0,20Z"/><path class="cls-2" d="M48,20a3.11,3.11,0,0,1,0,.5V20Z"/><ellipse class="cls-3" cx="24" cy="8.5" rx="24" ry="8.5"/><path class="cls-4" d="M24,17C10.74,17,0,13.19,0,8.5V21H0c.73,4.46,11.18,8,24,8s23.22-3.54,24-8h0V8.5C48,13.19,37.26,17,24,17Z"/><path class="cls-4" d="M0,8v.5A3.11,3.11,0,0,1,0,8Z"/><path class="cls-4" d="M48,8a3.11,3.11,0,0,1,0,.5V8Z"/></g></g></svg>