<?xml version="1.0" encoding="utf-8"?>
<!-- Generator: Adobe Illustrator 22.0.1, SVG Export Plug-In . SVG Version: 6.00 Build 0)  -->
<!DOCTYPE svg PUBLIC "-//W3C//DTD SVG 1.1//EN" "http://www.w3.org/Graphics/SVG/1.1/DTD/svg11.dtd">
<svg version="1.1" id="Capa_1" xmlns="http://www.w3.org/2000/svg" xmlns:xlink="http://www.w3.org/1999/xlink" x="0px" y="0px"
	 viewBox="0 0 447.1 447.1" style="enable-background:new 0 0 447.1 447.1;" xml:space="preserve">
<style type="text/css">
	.st0{fill:none;}
	.st1{fill:#EFCE4A;}
	.st2{fill:#7383BF;}
</style>
<g>
	<g id="Guides_For_Artboard_41_">
	</g>
	<g id="Artwork_40_">
	</g>
	<g id="Layer_2_40_">
		<g>
			<path class="st0" d="M167.9,262.9h110c0.4,0,0.8,0,1.2,0c5.3-10,8.7-20.9,9.8-32.4H158.1C159.3,242,162.6,252.9,167.9,262.9z"/>
			<path class="st0" d="M223.1,310.3c0.1,0.1,0.3,0.1,0.4,0.2c0.1-0.1,0.3-0.1,0.4-0.2c16.4-6.5,30.3-15.9,41-27.5h-82.9
				C192.8,294.4,206.7,303.8,223.1,310.3z"/>
			<path class="st0" d="M168.5,181.5c-5.2,9.4-8.6,19.7-10,30.4h130.1c-1.4-10.7-4.8-20.9-9.9-30.3H170.6
				C169.9,181.6,169.2,181.6,168.5,181.5z"/>
			<path class="st0" d="M183,161.8h81.2c-10.6-11.1-24.2-20.3-40.1-26.6c-0.1-0.1-0.3-0.1-0.4-0.2c-0.1,0.1-0.3,0.1-0.4,0.2
				C207.2,141.5,193.6,150.6,183,161.8z"/>
			<path class="st1" d="M166.1,181.5c0.7,0.1,1.4,0.1,2.2,0.1h113.1c-4.1-7.1-9.2-13.8-15.2-19.9h-84.9
				C175.3,167.8,170.2,174.4,166.1,181.5z"/>
			<path class="st1" d="M165.5,262.9c3.9,7.1,8.9,13.8,14.8,19.9h86.8c5.9-6.1,10.9-12.7,14.8-19.8c-0.4,0-0.8,0-1.2,0L165.5,262.9
				L165.5,262.9z"/>
			<path class="st1" d="M154.8,221.9v1.7c0,2.3,0.2,4.6,0.4,6.9h136.9c0.2-2.3,0.4-4.7,0.4-7.1l0-1.7c-0.1-3.3-0.3-6.6-0.8-9.9
				H155.6C155.2,215.2,154.9,218.6,154.8,221.9z"/>
			<path class="st2" d="M249.6,324c42.1-20.8,68.3-58.2,69-100.3l0-2c-0.8-41.9-26.9-79.4-69-100.2c16.2-10.7,29.2-24.4,38.3-40.5
				c12.4-22,16.8-47.4,12.3-71.7c-1.1-5.9-8.5-10-16.4-9.2c-8,0.8-13.6,6.2-12.5,12.1c7.2,38.8-12.1,76.9-47.7,97.3
				C188,89.1,168.7,51,175.9,12.2c1.1-5.9-4.5-11.3-12.5-12.1c-8-0.8-15.3,3.3-16.4,9.2c-4.5,24.3-0.1,49.7,12.3,71.7
				c9.1,16.1,22.1,29.8,38.3,40.5c-42.1,20.8-68.3,58.2-69,100.3l0,2c0.8,41.9,26.9,79.4,69,100.2c-16.4,10.9-29.6,24.8-38.8,41.3
				c-12.4,22.3-16.5,48.1-11.5,72.6c1.1,5.3,7.3,9.1,14.4,9.1c0.7,0,1.4,0,2.2-0.1c8-0.9,13.5-6.3,12.3-12.2
				c-8-39.4,11.2-78.1,47.4-98.8c36.2,20.6,55.4,59.3,47.4,98.8c-1.2,5.9,4.3,11.3,12.3,12.2c0.7,0.1,1.5,0.1,2.2,0.1
				c7.1,0,13.3-3.8,14.4-9.1c5-24.5,0.9-50.3-11.5-72.6C279.2,348.8,266,334.9,249.6,324z M223.1,310.3c-16.4-6.5-30.3-15.9-41-27.5
				c-5.6-6.1-10.4-12.8-14.2-19.9c-5.3-10-8.7-20.9-9.8-32.3c-0.2-2.3-0.4-4.6-0.4-6.9v-1.7c0.1-3.4,0.3-6.7,0.8-10
				c1.4-10.7,4.9-21,10-30.4c3.9-7.1,8.7-13.7,14.5-19.7c10.6-11.2,24.2-20.3,40.1-26.6c0.1-0.1,0.3-0.1,0.4-0.2
				c0.1,0.1,0.3,0.1,0.4,0.2c16,6.3,29.6,15.4,40.1,26.6c5.8,6.1,10.7,12.7,14.5,19.9c5.1,9.4,8.5,19.6,9.9,30.3
				c0.4,3.3,0.7,6.6,0.8,9.9l0,1.7c0,2.4-0.2,4.7-0.4,7.1c-1.1,11.4-4.5,22.3-9.8,32.4c-3.8,7.1-8.5,13.8-14.1,19.8
				c-10.7,11.6-24.6,21.1-41,27.5c-0.1,0.1-0.3,0.1-0.4,0.2C223.4,310.4,223.3,310.4,223.1,310.3z"/>
		</g>
	</g>
</g>
</svg>
