<?xml version="1.0" encoding="utf-8"?>
<!-- Generator: Adobe Illustrator 21.1.0, SVG Export Plug-In . SVG Version: 6.00 Build 0)  -->
<!DOCTYPE svg PUBLIC "-//W3C//DTD SVG 1.1//EN" "http://www.w3.org/Graphics/SVG/1.1/DTD/svg11.dtd">
<svg version="1.1" id="Layer_1" xmlns="http://www.w3.org/2000/svg" xmlns:xlink="http://www.w3.org/1999/xlink" x="0px" y="0px"
	 viewBox="0 0 508.5 508.5" style="enable-background:new 0 0 508.5 508.5;" xml:space="preserve">
<style type="text/css">
	.st0{fill:#5B5D6E;}
	.st1{fill:#E6E9EE;}
	.st2{fill:#FFD05B;}
	.st3{fill:#FFFFFF;}
	.st4{fill:#00D2FF;}
	.st5{fill:#324A5E;}
	.st6{fill:#F9B54C;}
	.st7{fill:#2B3B4E;}
</style>
<circle class="st0" cx="254.2" cy="254.2" r="217"/>
<g>
	<path class="st1" d="M339,208.8c0.7,7.8-2,15.3-6.8,20.7c-4.4,5.1-11.2,11.9-20,18.3c-4.4,3.1-9.2,6.1-14.2,8.8l-8.8-26.4l20-15.3
		l9.2-7.1l-9.5-28.1c3.4-35.3,12.2-66.1,12.2-66.1S334.9,147.7,339,208.8z"/>
	<path class="st1" d="M169.5,208.8c-0.7,7.8,2,15.3,6.8,20.7c4.4,5.1,11.2,11.9,20,18.3c4.4,3.1,9.2,6.1,14.2,8.8l8.8-26.4l-20-15.3
		l-9.2-7.1l9.5-28.1c-3.4-35.3-12.2-66.1-12.2-66.1S173.5,147.7,169.5,208.8z"/>
</g>
<g>
	<polygon class="st2" points="254.2,108.4 254.2,108.4 254.2,108.1 	"/>
	<path class="st2" d="M267.5,65.3l-13.2-0.7l0,0l0,0l0,0l0,0L241,65.3c0,0,1,11.9-4.7,22.4v14.6l18,5.8l0,0l0,0l17.3-5.4V86.4
		C266.5,76.2,267.5,65.3,267.5,65.3z"/>
	<polygon class="st2" points="254.2,108.1 254.2,108.4 254.2,108.4 	"/>
</g>
<polygon class="st3" points="254.2,108.4 254.2,108.4 254.2,108.1 "/>
<path class="st2" d="M271.5,86.4V103l-17.3,5.4l0,0l0,0l-18-5.8V88c1.4-2.4,2.4-5.1,3.1-7.5c2.4-8.1,1.7-14.9,1.7-14.9l13.2-0.7l0,0
	l0,0l0,0l0,0l13.2,0.7c0,0-0.7,6.8,1.7,14.6C269.8,81.9,270.5,84,271.5,86.4z"/>
<polygon class="st3" points="254.2,108.1 254.2,108.4 254.2,108.4 "/>
<polygon class="st4" points="201.7,265 201,304.4 210.2,492.9 234.9,492.9 254.2,338.3 273.6,492.9 298.3,492.9 307.5,304.4 
	306.8,265 "/>
<rect x="246.8" y="265" class="st5" width="14.2" height="12.2"/>
<path class="st6" d="M269.2,79.6l-1,1.4c-2.4,3.1-5.8,4.7-9.5,5.4l-2.7,0.3c-1.4,0.3-2.7,0.3-4.1,0l-2.4-0.3
	c-3.7-0.7-7.1-2.4-9.5-5.4l-1-0.7c2.4-8.1,1.7-14.9,1.7-14.9l13.2-0.7l0,0l0,0l0,0l0,0l13.2,0.7C267.5,65.3,266.8,71.8,269.2,79.6z"
	/>
<path class="st5" d="M302.1,492.9h-28.8v11.9c0,2,1.7,3.7,3.7,3.7h38.7v-1.7C316,499,309.9,492.9,302.1,492.9z"/>
<path class="st7" d="M206.4,492.9h28.8v11.9c0,2-1.7,3.7-3.7,3.7h-39v-1.7C192.5,499,198.6,492.9,206.4,492.9z"/>
<g>
	<path class="st4" d="M283.4,90.4c-7.1-3.4-12.5-5.8-12.5-5.8V85c-2.4,8.5-9.5,12.9-16.6,12.9c-7.1,0-14.2-4.4-16.6-12.9v-0.3
		c0,0-9.2,3.7-19.3,9.2v172.2h65.1L283.4,90.4L283.4,90.4z"/>
</g>
<g>
	<path class="st2" d="M253.6,21.9h-25.1l4.1,42c0.3,3.1,1.4,5.8,3.4,8.1l3.4,4.1c2.4,3.1,5.8,4.7,9.5,5.4l2.4,0.3
		c1.4,0.3,2.7,0.3,4.1,0l2.4-0.3c3.7-0.7,7.1-2.4,9.5-5.4l3.4-4.1c2-2.4,3.1-5.1,3.4-8.1l4.7-42C278.7,21.9,253.6,21.9,253.6,21.9z"
		/>
	<path class="st2" d="M281.4,46.7c-1.4,3.1-4.1,5.1-6.1,4.4c-2-0.7-3.1-4.1-1.7-7.5c1.4-3.1,4.1-5.1,6.1-4.4
		C281.7,40.2,282.7,43.6,281.4,46.7z"/>
	<path class="st2" d="M225.8,46.7c1.4,3.1,4.1,5.1,6.1,4.4c2-0.7,3.1-4.1,1.7-7.5c-1.4-3.1-4.1-5.1-6.1-4.4
		C225.1,40.2,224.4,43.6,225.8,46.7z"/>
</g>
<path class="st5" d="M232.9,12.4c0,0,20.3-30.5,48.8,4.1l-3.1-1c0,0,5.4,5.8,0.7,25.1c0,0-3.1,0.3-4.1,7.1c0,0-0.7-15.9-4.7-19
	c0,0-26.8,1.7-33.2-4.4c0,0-6.8,11.2-4.1,26.8c0,0-5.1-9.8-7.8-15.3c-2-3.7-3.1-7.8-3.1-12.2C222.7,18.5,224.7,12.4,232.9,12.4z"/>
<path class="st3" d="M309.5,279.6c0.7-34.9-5.8-62.1-1-94.9c5.4-40.4,12.9-70.9,12.9-70.9C309.9,100.3,271.9,85,271.9,85
	c7.8,23.1-9.8,43.1-12.9,46.5l1.4,259.4h47.5l2.4-86.5L309.5,279.6L309.5,279.6z"/>
<path class="st1" d="M271.9,84.7l11.2,11.9l-6.8,3.4l5.1,12.5l-22,18.6C259.3,131.1,275.9,106,271.9,84.7z"/>
<path class="st3" d="M199,279.6c-0.7-34.9,5.8-62.1,1-94.9c-5.4-40.4-12.9-70.9-12.9-70.9c11.5-13.6,49.5-28.8,49.5-28.8
	c-7.8,23.1,9.8,43.1,12.9,46.5l-1.4,259.4h-47.5l-2.4-86.5L199,279.6L199,279.6z"/>
<path class="st1" d="M236.6,84.7l-11.2,12.2l6.8,3.1l-5.1,12.5l22,19C249.5,131.1,232.5,106,236.6,84.7z"/>
</svg>
