<?xml version="1.0" encoding="utf-8"?>
<!-- Generator: Adobe Illustrator 21.1.0, SVG Export Plug-In . SVG Version: 6.00 Build 0)  -->
<!DOCTYPE svg PUBLIC "-//W3C//DTD SVG 1.1//EN" "http://www.w3.org/Graphics/SVG/1.1/DTD/svg11.dtd">
<svg version="1.1" id="Layer_1" xmlns="http://www.w3.org/2000/svg" xmlns:xlink="http://www.w3.org/1999/xlink" x="0px" y="0px"
	 viewBox="0 0 497.7 501.8" style="enable-background:new 0 0 497.7 501.8;" xml:space="preserve">
<style type="text/css">
	.st0{fill:none;}
	.st1{fill:#5B5D6E;}
	.st2{fill:#00D2FF;}
	.st3{fill:#B8E9FF;}
	.st4{fill:#D9F3FF;}
	.st5{fill:#FFFFFF;}
</style>
<title>Asset 1</title>
<g id="Layer_2">
	<g id="Capa_1">
		<path class="st0" d="M292.5,367.7l-2,1.7L292.5,367.7z"/>
		<path class="st0" d="M298.4,362.6l-1.8,1.5L298.4,362.6z"/>
		<path class="st0" d="M286.3,372.9l-1.8,1.5L286.3,372.9z"/>
		<path class="st0" d="M247.1,402.6l-1.6,1.1L247.1,402.6z"/>
		<path class="st0" d="M311.8,350.5l-1.8,1.6L311.8,350.5z"/>
		<path class="st0" d="M260.6,393l-1.7,1.3L260.6,393z"/>
		<path class="st0" d="M266.8,388.3l-1.9,1.5L266.8,388.3z"/>
		<path class="st0" d="M440.5,175.6c-0.5,1.2-1,2.4-1.5,3.6C439.5,178,440,176.8,440.5,175.6z"/>
		<path class="st0" d="M435.6,54.4l0.2,0.2L435.6,54.4z"/>
		<path class="st0" d="M437.6,56.1c0.7,0.6,1.4,1.3,2,1.9C439,57.3,438.3,56.7,437.6,56.1z"/>
		<path class="st0" d="M241.2,406.6l-1.9,1.3L241.2,406.6z"/>
		<path class="st0" d="M323.7,339.2l-1.8,1.7L323.7,339.2z"/>
		<path class="st0" d="M317.9,344.8l-2,1.9L317.9,344.8z"/>
		<path class="st0" d="M272.8,383.8l-1.7,1.3L272.8,383.8z"/>
		<path class="st0" d="M41.2,362.5l-0.2,0.8L41.2,362.5z"/>
		<path class="st0" d="M40.3,366.5l-0.1,0.4L40.3,366.5z"/>
		<path class="st0" d="M45.4,347.3L45.4,347.3L45.4,347.3L45.4,347.3z"/>
		<path class="st0" d="M42.2,358.4c-0.1,0.3-0.2,0.7-0.3,1L42.2,358.4z"/>
		<path class="st0" d="M43.3,354.4l-0.3,1L43.3,354.4z"/>
		<path class="st0" d="M46.7,343.2c-0.4,1.2-0.8,2.4-1.2,3.5C45.9,345.6,46.3,344.4,46.7,343.2z"/>
		<path class="st0" d="M235.1,410.7l-1.6,1.1L235.1,410.7z"/>
		<path class="st0" d="M446.7,159.1c14.8-43.8,13.6-80.4-7-101.1l0,0C460.4,78.7,461.5,115.3,446.7,159.1z"/>
		<path class="st1" d="M475.7,22C419-34.7,270.6,21.9,144.2,148.3C299.6,26.2,384.3,32.1,418.8,45.2c6.1,2.1,11.8,5.2,16.8,9.2
			l0.2,0.2c0.6,0.5,1.2,1,1.8,1.5s1.4,1.3,2,1.9l0,0c20.7,20.7,21.9,57.3,7,101.1c-1.8,5.4-3.9,10.9-6.2,16.4
			c-0.5,1.2-1,2.4-1.5,3.6c-20.6,48.4-58.5,103.3-109.6,154.3c-1.9,1.9-3.8,3.8-5.7,5.7l-1.8,1.7c-1.3,1.3-2.7,2.6-4.1,3.9l-2,1.9
			c-1.3,1.3-2.7,2.6-4.1,3.8l-1.7,1.6c-3.9,3.6-7.8,7-11.7,10.5l-1.8,1.5c-1.4,1.2-2.8,2.4-4.2,3.6l-2,1.7c-1.4,1.2-2.8,2.3-4.2,3.5
			l-1.8,1.5c-3.9,3.2-7.9,6.4-11.8,9.5l-1.7,1.3c-1.4,1.1-2.8,2.2-4.2,3.3l-1.9,1.5c-1.4,1.1-2.8,2.1-4.2,3.2l-1.7,1.3
			c-3.9,2.9-7.9,5.7-11.8,8.4l-1.6,1.1c-1.4,1-2.9,2-4.3,2.9l-1.9,1.3c-1.4,0.9-2.8,1.9-4.3,2.8l-1.6,1.1c-1.9,1.2-3.9,2.5-5.8,3.7
			C322.5,358.2,442.3,264.4,486,148C503.8,93.9,501.8,48.2,475.7,22z"/>
		<path class="st1" d="M40.2,367l0.1-0.4c0.2-1.1,0.5-2.2,0.7-3.3l0.2-0.8c0.2-1,0.5-2.1,0.8-3.1l0.3-1c0.3-1,0.5-2,0.8-3l0.3-1
			c0.7-2.3,1.3-4.7,2.1-7.1l0,0l0,0l0.2-0.5c0.4-1.2,0.7-2.4,1.2-3.5c17.8-53,59-116.5,117.5-175c39.7-39.7,81.8-71.5,121.3-93.4
			C33.7,211.8-38.2,423.6,18,479.8c47.4,47.5,159.2,15.5,268.5-70.3c-185,94.6-232.6,54.1-245,14.4C35.8,408.4,35.6,389,40.2,367z"
			/>
		<path class="st2" d="M235.1,410.7c1.4-0.9,2.8-1.9,4.3-2.8l1.9-1.3c1.4-1,2.9-1.9,4.3-2.9l1.6-1.1c3.9-2.7,7.9-5.5,11.8-8.4
			l1.7-1.3c1.4-1,2.8-2.1,4.2-3.2l1.9-1.5c1.4-1.1,2.8-2.2,4.2-3.3l1.7-1.3c3.9-3.1,7.9-6.2,11.8-9.5l1.8-1.5
			c1.4-1.2,2.8-2.3,4.2-3.5l2-1.7c1.4-1.2,2.8-2.4,4.2-3.6l1.8-1.5c3.9-3.4,7.8-6.9,11.7-10.5l1.8-1.6c1.3-1.3,2.7-2.5,4.1-3.8
			l2-1.9c1.3-1.3,2.7-2.6,4.1-3.9l1.8-1.7c1.9-1.9,3.8-3.8,5.7-5.7c51-51,89-106,109.6-154.3c0.5-1.2,1-2.4,1.5-3.6
			c2.3-5.6,4.4-11.1,6.2-16.4c14.8-43.8,13.6-80.4-7-101.1l0,0c-0.7-0.7-1.4-1.3-2-1.9s-1.2-1-1.8-1.5l-0.2-0.2
			c-5-4-10.7-7.1-16.8-9.2c-31.9-11.1-80.3,0.4-133.3,29.7c-39.5,21.9-81.6,53.6-121.3,93.4c-58.5,58.5-99.7,122-117.5,175
			c-0.4,1.2-0.8,2.4-1.2,3.5l-0.2,0.5v0c-0.8,2.4-1.5,4.8-2.1,7.1l-0.3,1c-0.3,1-0.5,2-0.8,3c-0.1,0.3-0.2,0.7-0.3,1
			c-0.3,1-0.5,2.1-0.8,3.1l-0.2,0.8c-0.3,1.1-0.5,2.2-0.7,3.3l-0.1,0.4c-4.6,22-4.4,41.5,1.3,56.9c2.6,7.4,6.9,14.2,12.4,19.8
			c31.4,31.4,99.5,17.8,173.7-28.3c1.9-1.2,3.9-2.4,5.8-3.7L235.1,410.7z M90,407.8c-32.4-32.4,11.6-128.9,98.2-215.5
			S371.3,61.6,403.7,94s-11.6,128.9-98.2,215.5S122.3,440.1,90,407.8z"/>
		<path class="st3" d="M403.7,94c-32.4-32.4-128.9,11.6-215.5,98.2S57.6,375.4,90,407.8s128.9-11.6,215.5-98.2S436.1,126.4,403.7,94
			z M136.2,361.5c-20.3-20.4,12.6-86.4,73.8-147.5s127-94,147.4-73.7s-12.6,86.4-73.7,147.4S156.6,381.8,136.2,361.5z"/>
		<path class="st4" d="M357.4,140.3C337,120,271,153,210,214s-94.1,127.1-73.8,147.5s86.4-12.6,147.4-73.7S377.7,160.7,357.4,140.3z
			 M261.6,265.6C229,298.2,196,318,187.9,309.9s-0.4-53.2,32.2-85.7s77.6-40.4,85.7-32.2S294.1,233.1,261.6,265.6z"/>
		<path class="st5" d="M220.1,224.1c-32.6,32.6-40.4,77.6-32.2,85.7s41.1-11.7,73.7-44.2s52.4-65.6,44.2-73.7
			S252.6,191.6,220.1,224.1z"/>
	</g>
</g>
</svg>
