<svg xmlns="http://www.w3.org/2000/svg" viewBox="0 0 497.68 501.76"><defs><style>.cls-1{fill:none;}.cls-2{fill:#5c546a;}.cls-3{fill:#74749b;}.cls-4{fill:#ffb293;}.cls-5{fill:#fff2aa;}.cls-6{fill:#fff;}</style></defs><title>Asset 1</title><g id="Layer_2" data-name="Layer 2"><g id="Capa_1" data-name="Capa 1"><path class="cls-1" d="M292.46,367.68l-2,1.68Z"/><path class="cls-1" d="M298.38,362.58l-1.75,1.52Z"/><path class="cls-1" d="M286.3,372.86l-1.75,1.45Z"/><path class="cls-1" d="M247.13,402.61l-1.62,1.11Z"/><path class="cls-1" d="M311.81,350.48,310,352.12Z"/><path class="cls-1" d="M260.63,393l-1.71,1.26Z"/><path class="cls-1" d="M266.81,388.34l-1.94,1.47Z"/><path class="cls-1" d="M440.54,175.57q-.74,1.8-1.51,3.61Q439.8,177.37,440.54,175.57Z"/><path class="cls-1" d="M435.59,54.36l.23.19Z"/><path class="cls-1" d="M437.64,56.09c.7.63,1.38,1.26,2,1.93Q438.69,57,437.64,56.09Z"/><path class="cls-1" d="M241.21,406.63l-1.88,1.26Z"/><path class="cls-1" d="M323.71,339.17l-1.76,1.7Z"/><path class="cls-1" d="M317.88,344.78l-2,1.88Z"/><path class="cls-1" d="M272.77,383.76l-1.7,1.32Z"/><path class="cls-1" d="M41.2,362.48l-.18.77Z"/><path class="cls-1" d="M40.28,366.55l-.09.44Z"/><path class="cls-1" d="M45.39,347.29l0-.05v0Z"/><path class="cls-1" d="M42.21,358.38c-.08.33-.17.66-.26,1Z"/><path class="cls-1" d="M43.29,354.38l-.28,1Z"/><path class="cls-1" d="M46.73,343.21q-.63,1.79-1.16,3.55Q46.13,345,46.73,343.21Z"/><path class="cls-1" d="M235.07,410.68l-1.64,1.07Z"/><path class="cls-1" d="M446.73,159.12c14.81-43.79,13.64-80.43-7-101.11h0C460.36,78.7,461.54,115.33,446.73,159.12Z"/><path class="cls-2" d="M475.69,22C419-34.66,270.59,21.86,144.19,148.26,299.65,26.21,384.33,32.09,418.76,45.17a55.73,55.73,0,0,1,16.83,9.19l.23.19c.61.5,1.23,1,1.82,1.54s1.38,1.26,2,1.93h0c20.68,20.68,21.85,57.31,7,101.1q-2.73,8.07-6.19,16.45-.74,1.8-1.51,3.61c-20.63,48.37-58.53,103.28-109.58,154.33q-2.86,2.86-5.73,5.66l-1.76,1.7q-2,2-4.07,3.91l-2,1.88q-2,1.93-4.09,3.82L310,352.12q-5.81,5.34-11.66,10.46l-1.75,1.52q-2.09,1.81-4.17,3.59l-2,1.68q-2.09,1.76-4.18,3.5l-1.75,1.45q-5.89,4.85-11.79,9.45l-1.7,1.32q-2.13,1.65-4.25,3.26l-1.94,1.47q-2.12,1.59-4.24,3.16l-1.71,1.26q-5.91,4.32-11.79,8.39l-1.62,1.11q-2.15,1.47-4.3,2.92l-1.88,1.26q-2.13,1.41-4.26,2.79l-1.64,1.07q-2.91,1.87-5.8,3.68C322.51,358.22,442.32,264.4,486,148,503.84,93.9,501.84,48.18,475.69,22Z"/><path class="cls-2" d="M40.19,367l.09-.44q.35-1.64.73-3.3l.18-.77c.24-1,.49-2.07.76-3.11l.26-1c.26-1,.52-2,.8-3l.28-1c.66-2.34,1.35-4.7,2.1-7.09h0v0l.16-.48q.53-1.76,1.16-3.55c17.77-53,59-116.49,117.46-175,39.73-39.73,81.8-71.5,121.3-93.36C33.68,211.77-38.19,423.61,18,479.75c47.45,47.45,159.2,15.53,268.5-70.28-185,94.55-232.6,54.07-245,14.42C35.82,408.44,35.57,389,40.19,367Z"/><path class="cls-3" d="M235.07,410.68q2.13-1.38,4.26-2.79l1.88-1.26q2.15-1.44,4.3-2.92l1.62-1.11q5.88-4.06,11.79-8.39l1.71-1.26q2.12-1.56,4.24-3.16l1.94-1.47q2.13-1.61,4.25-3.26l1.7-1.32q5.89-4.6,11.79-9.45l1.75-1.45q2.09-1.73,4.18-3.5l2-1.68q2.09-1.78,4.17-3.59l1.75-1.52q5.85-5.11,11.66-10.46l1.76-1.63q2-1.9,4.09-3.82l2-1.88q2-1.94,4.07-3.91l1.76-1.7q2.87-2.8,5.73-5.66c51-51,89-106,109.58-154.33q.77-1.81,1.51-3.61,3.44-8.37,6.19-16.45c14.81-43.79,13.64-80.43-7-101.11h0c-.67-.67-1.35-1.31-2-1.93s-1.2-1-1.82-1.54l-.23-.19a55.73,55.73,0,0,0-16.83-9.19c-31.92-11.08-80.29.41-133.26,29.73-39.51,21.86-81.57,53.63-121.3,93.36-58.46,58.46-99.69,122-117.47,175q-.6,1.78-1.16,3.55l-.16.48,0,.05c-.76,2.39-1.45,4.75-2.1,7.09l-.28,1c-.28,1-.54,2-.8,3-.08.33-.17.66-.26,1-.26,1-.51,2.08-.76,3.11l-.18.77q-.38,1.66-.73,3.3l-.09.44c-4.62,22-4.37,41.45,1.3,56.9A54,54,0,0,0,54,443.75c31.39,31.39,99.53,17.84,173.67-28.33q2.89-1.8,5.8-3.68ZM90,407.75c-32.38-32.38,11.6-128.86,98.24-215.49S371.31,61.64,403.69,94s-11.6,128.86-98.24,215.49S122.33,440.13,90,407.75Z"/><path class="cls-4" d="M403.69,94c-32.38-32.38-128.86,11.6-215.49,98.24S57.57,375.37,90,407.75s128.86-11.6,215.5-98.24S436.06,126.4,403.69,94ZM136.25,361.45C115.9,341.1,148.9,275.09,210,214S337,120,357.39,140.32s-12.65,86.36-73.71,147.42S156.61,381.81,136.25,361.45Z"/><path class="cls-5" d="M357.39,140.32C337,120,271,153,210,214S115.9,341.1,136.25,361.45s86.36-12.65,147.42-73.71S377.74,160.67,357.39,140.32ZM261.56,265.63C229,298.2,196,318,187.85,309.85s-.35-53.16,32.21-85.73,77.58-40.36,85.72-32.21S294.13,233.06,261.56,265.63Z"/><path class="cls-6" d="M220.06,224.13c-32.57,32.57-40.36,77.58-32.21,85.73S229,298.2,261.56,265.63s52.37-65.57,44.23-73.71S252.63,191.56,220.06,224.13Z"/></g></g></svg>