<?xml version="1.0" encoding="utf-8"?>
<!-- Generator: Adobe Illustrator 21.1.0, SVG Export Plug-In . SVG Version: 6.00 Build 0)  -->
<!DOCTYPE svg PUBLIC "-//W3C//DTD SVG 1.1//EN" "http://www.w3.org/Graphics/SVG/1.1/DTD/svg11.dtd">
<svg version="1.1" id="Layer_1" xmlns="http://www.w3.org/2000/svg" xmlns:xlink="http://www.w3.org/1999/xlink" x="0px" y="0px"
	 viewBox="0 0 32 58" style="enable-background:new 0 0 32 58;" xml:space="preserve">
<style type="text/css">
	.st0{fill:#5B5D6E;}
	.st1{fill:#D9F3FF;}
	.st2{fill:#00D2FF;}
	.st3{fill:#E74424;}
</style>
<title>Asset 1</title>
<g id="Layer_2">
	<g id="Capa_1">
		<path class="st0" d="M28.6,58H3.4C1.5,58,0,56.5,0,54.6V3.4C0,1.5,1.5,0,3.4,0h25.2C30.5,0,32,1.5,32,3.4v51.2
			C32,56.5,30.5,58,28.6,58z"/>
		<rect y="6" class="st1" width="32" height="40"/>
		<circle class="st2" cx="16" cy="52" r="3"/>
		<path class="st2" d="M16,4h-4c-0.6,0-1-0.4-1-1s0.4-1,1-1h4c0.6,0,1,0.4,1,1S16.6,4,16,4z"/>
		<path class="st2" d="M20,4h-1c-0.6,0-1-0.4-1-1s0.4-1,1-1h1c0.6,0,1,0.4,1,1S20.6,4,20,4z"/>
		<g id="Layer_2-2">
			<path class="st3" d="M13.4,22.3c0.1-0.2,0.2-0.3,0.4-0.2c0.1,0,0.2,0.2,0.2,0.3l0.5,6.2l1-3.6c0-0.2,0.2-0.3,0.4-0.3
				c0.1,0,0.2,0.1,0.3,0.3l0.5,2.4l1-4c0-0.2,0.2-0.3,0.4-0.3c0.1,0,0.2,0.1,0.3,0.3l0.7,5l0.3-1c0-0.1,0.2-0.2,0.3-0.2h7.5v-1.6
				c0-1.6-1.3-2.9-2.9-2.9h-4.6v-4.6c0-1.6-1.3-2.9-2.9-2.9l0,0H15c-1.6,0-2.9,1.3-2.9,2.9v4.6H7.6c-1.6,0-2.9,1.3-2.9,2.9v1.8h6.9
				L13.4,22.3z"/>
			<path class="st3" d="M19.2,30.1c0,0.2-0.2,0.3-0.4,0.2c-0.1,0-0.2-0.2-0.3-0.3l-0.7-4.8L17.1,29c0,0.2-0.2,0.3-0.3,0.3l0,0
				c-0.2,0-0.3-0.1-0.3-0.3l-0.6-2.5l-1.2,4.1c0,0.1-0.2,0.2-0.3,0.2l0,0c-0.2,0-0.3-0.1-0.3-0.3L13.5,24l-1.4,3.8
				c0,0.1-0.2,0.2-0.3,0.2H4.7c0.2,1.4,1.4,2.4,2.8,2.4h4.6v4.5c0,1.6,1.3,2.8,2.9,2.8h1.9c1.6,0,2.9-1.3,2.9-2.9v-4.6h4.5
				c1.4,0,2.6-1,2.8-2.4h-7.2L19.2,30.1z"/>
			<path class="st1" d="M28.4,27.3h-8.7c-0.1,0-0.3,0.1-0.3,0.2l-0.3,1l-0.7-5c0-0.2-0.2-0.3-0.4-0.3c-0.1,0-0.2,0.1-0.3,0.3l-1,4
				L16.2,25c0-0.2-0.2-0.3-0.4-0.3c-0.1,0-0.2,0.1-0.3,0.3l-1,3.6L14,22.4c0-0.2-0.2-0.3-0.4-0.3c-0.1,0-0.2,0.1-0.3,0.2l-1.8,5H3.7
				c-0.2,0-0.3,0.1-0.3,0.3c0,0.2,0.1,0.3,0.3,0.3l0,0h8.2c0.1,0,0.3-0.1,0.3-0.2l1.4-3.8l0.5,6.5c0,0.2,0.1,0.3,0.3,0.3l0,0
				c0.1,0,0.3-0.1,0.3-0.2l1.1-4.1l0.7,2.6c0,0.2,0.2,0.3,0.3,0.3l0,0c0.2,0,0.3-0.1,0.3-0.3l0.9-3.6l0.7,4.8c0,0.2,0.2,0.3,0.4,0.3
				c0.1,0,0.3-0.1,0.3-0.3l0.7-2.2h8.4c0.2,0,0.3-0.1,0.3-0.3C28.7,27.4,28.5,27.3,28.4,27.3L28.4,27.3z"/>
		</g>
	</g>
</g>
</svg>
