<svg xmlns="http://www.w3.org/2000/svg" viewBox="0 0 512 454.1"><defs><style>.cls-1{fill:#ccc;}.cls-2{fill:#999;}.cls-3{fill:#e6e6e6;}.cls-4{fill:#9bd7f4;}.cls-5{fill:#c8edfc;}.cls-6{fill:#b3b3b3;}.cls-7{fill:#e74424;}.cls-8{fill:#f7f1e6;}</style></defs><title>Asset 1</title><g id="Layer_2" data-name="Layer 2"><g id="Layer_1-2" data-name="Layer 1"><polygon class="cls-1" points="304 444.78 207.99 444.78 216.03 411.3 223.8 379 288.2 379 295.96 411.3 304 444.78"/><polygon class="cls-2" points="295.96 411.3 216.03 411.3 223.8 379 249.93 346.97 288.2 379 295.96 411.3"/><path class="cls-1" d="M512,33.88V345.12A33.88,33.88,0,0,1,478.12,379H33.88A33.88,33.88,0,0,1,0,345.12V33.88A33.88,33.88,0,0,1,33.88,0H478.12A33.88,33.88,0,0,1,512,33.88Z"/><path class="cls-3" d="M512,33.88V345.12A33.88,33.88,0,0,1,478.12,379H205.94L312.21,0H478.12A33.88,33.88,0,0,1,512,33.88Z"/><rect class="cls-4" y="46.48" width="512" height="286.04"/><polygon class="cls-5" points="512 46.48 512 332.52 218.98 332.52 299.17 46.48 512 46.48"/><rect class="cls-3" x="177.71" y="435.47" width="156.56" height="18.64"/><rect class="cls-6" y="40.89" width="512" height="11.18"/><rect class="cls-6" y="327.89" width="512" height="11.18"/><g id="Layer_2-2" data-name="Layer 2"><path class="cls-7" d="M226.64,142.43a3.73,3.73,0,0,1,7.22.94l6,69.56L251,172.75a3.73,3.73,0,0,1,7.22.16l6.21,26.94L275,155.3a3.73,3.73,0,0,1,7.31.35l7.91,56.4,3.55-11.46a3.73,3.73,0,0,1,3.56-2.62h83.9V178.76a32.11,32.11,0,0,0-32.11-32.11h-51v-51A32.11,32.11,0,0,0,266,63.57H244.55a32.11,32.11,0,0,0-32.11,32.11v51h-51a32.11,32.11,0,0,0-32.1,32.11v19.62h77.2Z"/><path class="cls-7" d="M292.4,230.19a3.73,3.73,0,0,1-7.25-.58l-7.49-53.37L268,217a3.73,3.73,0,0,1-3.62,2.86h0A3.73,3.73,0,0,1,260.7,217l-6.48-28.13-12.76,46a3.73,3.73,0,0,1-3.59,2.73h-.35a3.73,3.73,0,0,1-3.37-3.39L227.89,161l-15.19,42.35a3.72,3.72,0,0,1-3.51,2.47H129.86a32.11,32.11,0,0,0,31.61,26.51h51v51a32.12,32.12,0,0,0,32.11,32.12H266a32.11,32.11,0,0,0,32.11-32.12v-51h51a32.11,32.11,0,0,0,31.69-26.92H300.07Z"/><path class="cls-8" d="M394.23,198H297.32a3.73,3.73,0,0,0-3.56,2.62l-3.55,11.46-7.91-56.4a3.73,3.73,0,0,0-7.31-.35l-10.6,44.54-6.21-26.94a3.73,3.73,0,0,0-7.22-.16l-11.15,40.19-6-69.56a3.73,3.73,0,0,0-7.22-.94l-20.07,55.94H117.77a3.73,3.73,0,0,0,0,7.45h91.41a3.72,3.72,0,0,0,3.51-2.47L227.89,161l6.26,73.2a3.73,3.73,0,0,0,3.37,3.39h.35a3.73,3.73,0,0,0,3.59-2.73l12.76-46L260.7,217a3.73,3.73,0,0,0,3.62,2.89h0A3.73,3.73,0,0,0,268,217l9.71-40.81,7.49,53.37a3.73,3.73,0,0,0,7.25.58l7.67-24.78h94.16a3.73,3.73,0,0,0,0-7.45Z"/></g></g></g></svg>