<svg xmlns="http://www.w3.org/2000/svg" viewBox="0 0 32 58"><defs><style>.cls-1{fill:#345693;}.cls-2{fill:#e7eced;}.cls-3{fill:#5c9eff;}.cls-4{fill:#e74424;}.cls-5{fill:#f7f1e6;}</style></defs><title>Asset 1</title><g id="Layer_2" data-name="Layer 2"><g id="Capa_1" data-name="Capa 1"><path class="cls-1" d="M28.6,58H3.41A3.41,3.41,0,0,1,0,54.6V3.4A3.41,3.41,0,0,1,3.41,0H28.59A3.41,3.41,0,0,1,32,3.4V54.59A3.41,3.41,0,0,1,28.6,58Z"/><rect class="cls-2" y="6" width="32" height="40"/><circle class="cls-3" cx="16" cy="52" r="3"/><path class="cls-3" d="M16,4H12a1,1,0,0,1,0-2h4a1,1,0,0,1,0,2Z"/><path class="cls-3" d="M20,4H19a1,1,0,0,1,0-2h1a1,1,0,0,1,0,2Z"/><g id="Layer_2-2" data-name="Layer 2"><path class="cls-4" d="M13.38,22.3a.33.33,0,0,1,.64.08l.53,6.21,1-3.59a.33.33,0,0,1,.65,0l.55,2.41.95-4a.33.33,0,0,1,.65,0l.71,5,.32-1a.33.33,0,0,1,.32-.23h7.5V25.54a2.87,2.87,0,0,0-2.87-2.87H19.76V18.12a2.87,2.87,0,0,0-2.87-2.87H15a2.87,2.87,0,0,0-2.87,2.87v4.55H7.55a2.87,2.87,0,0,0-2.87,2.87v1.75h6.9Z"/><path class="cls-4" d="M19.25,30.14a.33.33,0,0,1-.65-.05l-.67-4.77L17.07,29a.33.33,0,0,1-.32.26h0a.33.33,0,0,1-.32-.26l-.58-2.51L14.7,30.55a.33.33,0,0,1-.32.24h0a.33.33,0,0,1-.3-.3L13.49,24l-1.36,3.78a.33.33,0,0,1-.31.22H4.73a2.87,2.87,0,0,0,2.82,2.37h4.55v4.55A2.87,2.87,0,0,0,15,37.75H16.9a2.87,2.87,0,0,0,2.87-2.87V30.33h4.55a2.87,2.87,0,0,0,2.83-2.41H19.94Z"/><path class="cls-5" d="M28.35,27.26H19.69a.33.33,0,0,0-.32.23l-.32,1-.71-5a.33.33,0,0,0-.65,0l-.95,4L16.19,25a.33.33,0,0,0-.65,0l-1,3.59L14,22.38a.33.33,0,0,0-.64-.08l-1.79,5H3.65a.33.33,0,0,0,0,.67h8.17a.33.33,0,0,0,.31-.22L13.49,24,14,30.49a.33.33,0,0,0,.3.3h0a.33.33,0,0,0,.32-.24l1.14-4.11L16.42,29a.33.33,0,0,0,.32.26h0a.33.33,0,0,0,.32-.26l.87-3.65.67,4.77a.33.33,0,0,0,.65.05l.68-2.21h8.41a.33.33,0,0,0,0-.67Z"/></g></g></g></svg>