<?xml version="1.0" encoding="utf-8"?>
<!-- Generator: Adobe Illustrator 21.1.0, SVG Export Plug-In . SVG Version: 6.00 Build 0)  -->
<!DOCTYPE svg PUBLIC "-//W3C//DTD SVG 1.1//EN" "http://www.w3.org/Graphics/SVG/1.1/DTD/svg11.dtd">
<svg version="1.1" id="Layer_1" xmlns="http://www.w3.org/2000/svg" xmlns:xlink="http://www.w3.org/1999/xlink" x="0px" y="0px"
	 viewBox="0 0 512 454.1" style="enable-background:new 0 0 512 454.1;" xml:space="preserve">
<style type="text/css">
	.st0{fill:#7D8096;}
	.st1{fill:#5B5D6E;}
	.st2{fill:#B8E9FF;}
	.st3{fill:#D9F3FF;}
	.st4{fill:#A5ABC4;}
	.st5{fill:#E74424;}
	.st6{fill:#F7F1E6;}
</style>
<title>Asset 1</title>
<g id="Layer_2">
	<g id="Layer_1-2">
		<polygon class="st0" points="304,444.8 208,444.8 216,411.3 223.8,379 288.2,379 296,411.3 		"/>
		<polygon class="st1" points="296,411.3 216,411.3 223.8,379 249.9,347 288.2,379 		"/>
		<path class="st1" d="M512,33.9v311.2c0,18.7-15.2,33.9-33.9,33.9l0,0H33.9C15.2,379,0,363.8,0,345.1c0,0,0,0,0,0V33.9
			C0,15.2,15.2,0,33.9,0h444.2C496.8,0,512,15.2,512,33.9L512,33.9z"/>
		<path class="st0" d="M512,33.9v311.2c0,18.7-15.2,33.9-33.9,33.9l0,0H205.9L312.2,0h165.9C496.8,0,512,15.2,512,33.9L512,33.9z"/>
		<rect y="46.5" class="st2" width="512" height="286"/>
		<polygon class="st3" points="512,46.5 512,332.5 219,332.5 299.2,46.5 		"/>
		<rect x="177.7" y="435.5" class="st4" width="156.6" height="18.6"/>
		<rect y="40.9" class="st4" width="512" height="11.2"/>
		<rect y="327.9" class="st4" width="512" height="11.2"/>
		<g id="Layer_2-2">
			<path class="st5" d="M233.5,153.4c0.5-1.5,2.2-2.2,3.7-1.7c1,0.4,1.8,1.3,1.9,2.4l4.6,53.3l8.5-30.8c0.4-1.5,2-2.4,3.5-2
				c1,0.3,1.8,1.1,2,2.1l4.8,20.6l8.1-34.1c0.4-1.5,1.9-2.5,3.5-2.1c1.1,0.3,2,1.2,2.1,2.4l6.1,43.2l2.7-8.8c0.4-1.2,1.5-2,2.7-2
				H352v-14.7c0-13.6-11-24.6-24.6-24.6h-39.1v-39.1c0-13.6-11-24.6-24.6-24.6h-16.4c-13.6,0-24.6,11-24.6,24.6l0,0v39.1h-39.1
				c-13.6,0-24.6,11-24.6,24.6v15h59.2L233.5,153.4z"/>
			<path class="st5" d="M283.9,220.7c-0.5,1.5-2.1,2.3-3.6,1.9c-1-0.3-1.8-1.2-2-2.3l-5.7-40.9l-7.4,31.2c-0.3,1.3-1.5,2.2-2.8,2.2
				l0,0c-1.3,0-2.5-0.9-2.8-2.2l-5-21.6l-9.8,35.3c-0.3,1.2-1.5,2.1-2.8,2.1h-0.3c-1.4-0.1-2.5-1.2-2.6-2.6l-4.8-56.1l-11.6,32.5
				c-0.4,1.1-1.5,1.9-2.7,1.9h-60.8c2.1,11.7,12.3,20.3,24.2,20.3h39.1v39.1c0,13.6,11,24.6,24.6,24.6h16.4
				c13.6,0,24.6-11,24.6-24.6c0,0,0,0,0,0v-39.1h39.1c12.1,0,22.3-8.7,24.3-20.6h-61.9L283.9,220.7z"/>
			<path class="st6" d="M361.9,196h-74.3c-1.3,0-2.4,0.8-2.7,2l-2.7,8.8l-6.1-43.2c-0.2-1.6-1.7-2.6-3.2-2.4c-1.1,0.2-2.1,1-2.4,2.1
				l-8.1,34.1l-4.8-20.6c-0.4-1.5-1.9-2.5-3.4-2.1c-1,0.2-1.8,1-2.1,2l-8.5,30.8l-4.6-53.3c-0.1-1.6-1.5-2.7-3.1-2.6
				c-1.1,0.1-2.1,0.8-2.4,1.9l-15.4,42.9h-68c-1.6,0.1-2.8,1.4-2.7,3c0.1,1.5,1.2,2.6,2.7,2.7h70c1.2,0,2.3-0.8,2.7-1.9l11.6-32.5
				l4.8,56.1c0.1,1.4,1.2,2.5,2.6,2.6h0.3c1.3,0,2.4-0.9,2.8-2.1l9.8-35.3l5,21.6c0.3,1.3,1.4,2.2,2.8,2.2l0,0
				c1.3,0,2.5-0.9,2.8-2.2l7.4-31.3l5.7,40.9c0.2,1.6,1.7,2.6,3.2,2.4c1.1-0.2,2-0.9,2.3-2l5.9-19H362c1.6-0.1,2.8-1.4,2.7-3
				C364.6,197.2,363.4,196,361.9,196L361.9,196z"/>
		</g>
	</g>
</g>
</svg>
