<?xml version="1.0" encoding="utf-8"?>
<!-- Generator: Adobe Illustrator 21.1.0, SVG Export Plug-In . SVG Version: 6.00 Build 0)  -->
<!DOCTYPE svg PUBLIC "-//W3C//DTD SVG 1.1//EN" "http://www.w3.org/Graphics/SVG/1.1/DTD/svg11.dtd">
<svg version="1.1" id="Layer_1" xmlns="http://www.w3.org/2000/svg" xmlns:xlink="http://www.w3.org/1999/xlink" x="0px" y="0px"
	 viewBox="0 0 309 462" style="enable-background:new 0 0 309 462;" xml:space="preserve">
<style type="text/css">
	.st0{fill:#A5ABC4;}
	.st1{fill:#00D2FF;}
	.st2{fill:#5B5D6E;}
	.st3{opacity:0.3;fill:#5B5B5F;enable-background:new    ;}
	.st4{opacity:0.4;fill:#5B5B5F;enable-background:new    ;}
</style>
<title>Asset 1</title>
<g id="Layer_2">
	<g id="Layer_1-2">
		<path class="st0" d="M149.5,407v-20c76.9,0,139.5-62.6,139.5-139.5S226.4,108,149.5,108V88c88,0,159.5,71.5,159.5,159.5
			S237.5,407,149.5,407z"/>
		<rect y="345.7" class="st1" width="183.8" height="20"/>
		<path class="st2" d="M184.5,345.7h-31.6c-27.1,0-49.1,22-49.1,49.1h129.8C233.6,367.7,211.6,345.7,184.5,345.7z"/>
		<polygon class="st0" points="163.2,84.2 172.9,54.6 113.8,35.4 104.2,65.1 92.6,61.3 23.6,273.8 105.9,300.5 174.8,88 		"/>
		
			<rect x="54.8" y="243.9" transform="matrix(0.3087 -0.9512 0.9512 0.3087 -228.3734 260.1155)" class="st2" width="20" height="86.5"/>
		
			<rect x="72.4" y="202" transform="matrix(0.3087 -0.9512 0.9512 0.3087 -179.0316 244.043)" class="st2" width="12" height="86.5"/>
		<polygon class="st2" points="184.4,19.1 125.3,0 121.6,11.4 130.3,14.2 122.6,38.2 164.2,51.7 171.9,27.7 180.6,30.6 		"/>
		<polygon class="st3" points="163.2,84.2 172.9,54.6 164.2,51.7 172.3,26.8 181,29.6 184,20.1 154.5,10.6 62.2,295 103.3,308.4 
			105.9,300.5 105.9,300.5 174.8,88 		"/>
		<rect x="130.9" y="39.7" transform="matrix(0.3087 -0.9512 0.9512 0.3087 26.0358 177.31)" class="st4" width="8.3" height="62"/>
		<rect y="422" class="st2" width="299" height="40"/>
		<rect x="16" y="392" class="st0" width="267" height="30"/>
		<circle class="st1" cx="149.5" cy="112.1" r="40.5"/>
		<path class="st4" d="M149.5,71.6v81c22.4,0,40.5-18.1,40.5-40.5S171.9,71.6,149.5,71.6z"/>
	</g>
</g>
</svg>
