<svg xmlns="http://www.w3.org/2000/svg" viewBox="0 0 309.03 462.04"><defs><style>.cls-1{fill:#d8d9dd;}.cls-2{fill:#90c5ff;}.cls-3{fill:#59595a;}.cls-4,.cls-5{fill:#5b5b5f;isolation:isolate;}.cls-4{opacity:0.3;}.cls-5{opacity:0.4;}.cls-6{fill:#c8523b;}</style></defs><title>Asset 1</title><g id="Layer_2" data-name="Layer 2"><g id="Layer_1-2" data-name="Layer 1"><path class="cls-1" d="M149.52,407V387C226.45,387,289,324.43,289,247.5S226.44,108,149.51,108V88C237.47,88,309,159.54,309,247.5S237.47,407,149.52,407Z"/><rect class="cls-2" y="345.68" width="183.78" height="20"/><path class="cls-3" d="M184.53,345.68H152.92a49.09,49.09,0,0,0-49.09,49.09H233.62A49.09,49.09,0,0,0,184.53,345.68Z"/><polygon class="cls-1" points="163.22 84.25 172.86 54.56 113.85 35.4 104.21 65.1 92.6 61.33 23.63 273.82 105.86 300.51 174.83 88.02 163.22 84.25"/><rect class="cls-3" x="54.76" y="243.93" width="20" height="86.46" transform="translate(-228.37 260.12) rotate(-72.02)"/><rect class="cls-3" x="72.38" y="201.96" width="12" height="86.46" transform="translate(-179.04 244.05) rotate(-72.02)"/><polygon class="cls-3" points="184.35 19.15 125.34 0 121.64 11.41 130.34 14.24 122.55 38.23 164.16 51.73 171.94 27.74 180.65 30.57 184.35 19.15"/><polygon class="cls-4" points="163.22 84.25 172.86 54.56 164.16 51.73 172.26 26.75 180.97 29.58 184.03 20.14 154.52 10.56 62.19 295.03 103.31 308.38 105.86 300.51 105.86 300.51 174.83 88.02 163.22 84.25"/><rect class="cls-5" x="130.86" y="39.72" width="8.27" height="62.04" transform="translate(26.04 177.31) rotate(-72.02)"/><rect class="cls-3" y="422.04" width="299.03" height="40"/><rect class="cls-1" x="16.02" y="392.04" width="267" height="30"/><circle class="cls-6" cx="149.52" cy="112.13" r="40.49"/><path class="cls-5" d="M149.52,71.64v81a40.49,40.49,0,1,0,0-81Z"/></g></g></svg>