<svg xmlns="http://www.w3.org/2000/svg" viewBox="0 0 512 424.78"><defs><style>.cls-1{fill:#328777;}.cls-2{fill:#1f544a;}.cls-3{fill:#ffd422;}.cls-4{fill:#ff9478;}.cls-5{fill:#4bcdb2;}.cls-6{fill:#d7d5d9;}.cls-7{fill:#ffe477;}.cls-8{opacity:0.35;}.cls-9{opacity:0.39;}</style></defs><title>Asset 1</title><g id="Layer_2" data-name="Layer 2"><g id="Layer_1-2" data-name="Layer 1"><path class="cls-1" d="M218.95,250.63l28.8-54.6c2.48-4.42-9.82-11.62-4.76-11.29,1.56.1,48.18,7.21,48.18,7.21L258.5,263.41Z"/><path class="cls-2" d="M267.8,333.6l-70.55-18.78,19.05-71.58c1.12-.07,25.51,10.15,25.51,10.15Z"/><polygon class="cls-3" points="340.92 348.27 167.49 302.11 158.97 330.9 334.68 376.83 340.92 348.27"/><polygon class="cls-4" points="369.45 111.95 423.75 109.66 448.69 62.07 400.6 50.67 351.19 84.52 351.19 115.03 369.45 111.95"/><path class="cls-5" d="M183.46,86.6c-12.17,4.33-31.67,19.67-34.9,33.28-5,20.94,8.28,41.93,29.07,47.46l91.69,24.4A7.75,7.75,0,0,1,274.09,203l-30.4,52.8,33,13.77,44.24-69.32A26.25,26.25,0,0,0,314.19,165L249.6,113.23Z"/><path class="cls-5" d="M195.79,74.79c28.17-16.55,83.76-34.53,168.88.86l10.42,102.14,52.19-8.4,5.8,32.51-85.28,11.55-17-88.8Z"/><polygon class="cls-6" points="417.4 177.65 337.28 148.07 102.74 61.49 107.84 42.32 333.69 125.7 452.09 169.41 417.4 177.65"/><path class="cls-7" d="M512,384h0S492.5,408,477.41,404L5.27,278.36,0,298.16,472.13,423.83a28.27,28.27,0,0,0,34.59-20h0Z"/><path class="cls-2" d="M449.52,66.61a45.93,45.93,0,1,0-65.94,17.92l28.48-29Z"/><polyline class="cls-4" points="414.97 171.37 469.17 163.2 459.98 197.73 416.61 204.12"/><path class="cls-1" d="M242.65,250.26c1.12-.07,48.07,19.14,48.07,19.14l-22.1,34.21,28.18,27-2.66,10L223.6,321.84Z"/><polygon class="cls-5" points="427.27 169.39 375.08 177.79 367.75 105.93 280.14 105.93 330.81 124.64 347.79 213.44 433.07 201.89 427.27 169.39"/><g class="cls-8"><polyline class="cls-2" points="447.96 63.4 445.17 68.8 401.94 59.86 413.84 49.66 447.96 63.4"/></g><g class="cls-8"><path class="cls-2" d="M375.27,67.73l-7.67,5.54s2.59,6.81,14.51,7.25Z"/></g><g class="cls-9"><path class="cls-2" d="M177.73,89.17a60.26,60.26,0,0,0-12,8l90.94,21.72-1.09-1Z"/></g></g></g></svg>