<?xml version="1.0" encoding="utf-8"?>
<!-- Generator: Adobe Illustrator 21.1.0, SVG Export Plug-In . SVG Version: 6.00 Build 0)  -->
<!DOCTYPE svg PUBLIC "-//W3C//DTD SVG 1.1//EN" "http://www.w3.org/Graphics/SVG/1.1/DTD/svg11.dtd">
<svg version="1.1" id="Layer_1" xmlns="http://www.w3.org/2000/svg" xmlns:xlink="http://www.w3.org/1999/xlink" x="0px" y="0px"
	 viewBox="0 0 512 424.8" style="enable-background:new 0 0 512 424.8;" xml:space="preserve">
<style type="text/css">
	.st0{fill:#7D8096;}
	.st1{fill:#5B5D6E;}
	.st2{fill:#B8E9FF;}
	.st3{fill:#FF9478;}
	.st4{fill:#A5ABC4;}
	.st5{fill:#D9F3FF;}
	.st6{opacity:0.35;}
	.st7{opacity:0.39;}
</style>
<title>Asset 1</title>
<g id="Layer_2">
	<g id="Layer_1-2">
		<path class="st0" d="M218.9,250.6l28.8-54.6c2.5-4.4-9.8-11.6-4.8-11.3c1.6,0.1,48.2,7.2,48.2,7.2l-32.7,71.5L218.9,250.6z"/>
		<path class="st1" d="M267.8,333.6l-70.6-18.8l19.1-71.6c1.1-0.1,25.5,10.1,25.5,10.1L267.8,333.6z"/>
		<polygon class="st2" points="340.9,348.3 167.5,302.1 159,330.9 334.7,376.8 		"/>
		<polygon class="st3" points="369.5,111.9 423.8,109.7 448.7,62.1 400.6,50.7 351.2,84.5 351.2,115 		"/>
		<path class="st4" d="M183.5,86.6c-12.2,4.3-31.7,19.7-34.9,33.3c-5,20.9,8.3,41.9,29.1,47.5l91.7,24.4c4.1,1.1,6.6,5.4,5.5,9.5
			c-0.2,0.6-0.4,1.2-0.7,1.8l-30.4,52.8l33,13.8l44.2-69.3c7.4-11.7,4.4-27.1-6.7-35.2l-64.6-51.8L183.5,86.6z"/>
		<path class="st4" d="M195.8,74.8c28.2-16.5,83.8-34.5,168.9,0.9l10.4,102.1l52.2-8.4l5.8,32.5l-85.3,11.6l-17-88.8L195.8,74.8z"/>
		<polygon class="st2" points="417.4,177.6 337.3,148.1 102.7,61.5 107.8,42.3 333.7,125.7 452.1,169.4 		"/>
		<path class="st5" d="M512,384L512,384c0,0-19.5,24-34.6,20L5.3,278.4L0,298.2l472.1,125.7c15.1,4,30.6-4.9,34.6-20l0,0L512,384z"
			/>
		<path class="st1" d="M449.5,66.6c11.4-22.7,2.3-50.3-20.4-61.7s-50.3-2.3-61.7,20.4c-10.6,21-3.6,46.5,16.1,59.2l28.5-29
			L449.5,66.6z"/>
		<polyline class="st3" points="415,171.4 469.2,163.2 460,197.7 416.6,204.1 		"/>
		<path class="st0" d="M242.6,250.3c1.1-0.1,48.1,19.1,48.1,19.1l-22.1,34.2l28.2,27l-2.7,10l-70.5-18.8L242.6,250.3z"/>
		<polygon class="st4" points="427.3,169.4 375.1,177.8 367.8,105.9 280.1,105.9 330.8,124.6 347.8,213.4 433.1,201.9 		"/>
		<g class="st6">
			<polyline class="st1" points="448,63.4 445.2,68.8 401.9,59.9 413.8,49.7 448,63.4 			"/>
		</g>
		<g class="st6">
			<path class="st1" d="M375.3,67.7l-7.7,5.5c0,0,2.6,6.8,14.5,7.2L375.3,67.7z"/>
		</g>
		<g class="st7">
			<path class="st0" d="M177.7,89.2c-4.3,2.2-8.3,4.9-12,8l90.9,21.7l-1.1-1L177.7,89.2z"/>
		</g>
	</g>
</g>
</svg>
